<svg width="512" height="512" viewBox="0 0 512 512" fill="none" xmlns="http://www.w3.org/2000/svg">
  <defs>
    <linearGradient id="bg" x1="0" y1="0" x2="512" y2="512" gradientUnits="userSpaceOnUse">
      <stop stop-color="#3B82F6"/>
      <stop offset="1" stop-color="#2563EB"/>
    </linearGradient>
    <linearGradient id="plane" x1="180" y1="200" x2="360" y2="330" gradientUnits="userSpaceOnUse">
      <stop stop-color="#FFFFFF"/>
      <stop offset="1" stop-color="#DBEAFE"/>
    </linearGradient>
  </defs>

  <rect width="512" height="512" rx="112" fill="url(#bg)"/>

  <path d="M170 360
           a70 70 0 0 1 -6 -139
           a86 86 0 0 1 166 -20
           a64 64 0 0 1 20 159
           Z"
        fill="#FFFFFF" fill-opacity="0.22"/>

  <path d="M372 168 L150 262 L228 292 L262 372 L300 300 L372 168 Z"
        fill="url(#plane)"/>
  <path d="M372 168 L228 292 L262 372 L300 300 Z"
        fill="#BFDBFE"/>
  <path d="M372 168 L262 288 L300 300 Z"
        fill="#93C5FD"/>
</svg>
